<svg
    version="1.0"
    xmlns="http://www.w3.org/2000/svg"
    xmlns:xlink="http://www.w3.org/1999/xlink"
    width="512"
    height="512"
    viewBox="0 0 512 512"
  >
    <svg id="global-svg-defs" version="1.0" xmlns="http://www.w3.org/2000/svg" width="0" height="0" viewBox="0 0 340.000000 250.000000" preserveAspectRatio="xMidYMid meet" color-interpolation-filters="sRGB" class="el-tooltip" style="margin: auto;" xmlns:xlink="http://www.w3.org/1999/xlink">
    <defs>
      <pattern id="watermark" patternUnits="userSpaceOnUse" width="100%" height="100%">
        <image xlink:href="https://www.logosc.cn/img/watermark/LOGOSC-watermark.png" x="0" y="0" width="100%" height="100%">
        </image>
      </pattern>
                    <linearGradient id="92" x1="0%" y1="0%" x2="100%" y2="0%">
          <stop offset="0%" stop-color="#fa71cd"></stop>
          <stop offset="100%" stop-color="#9b59b6"></stop>
        </linearGradient>
              <linearGradient id="93" x1="0%" y1="0%" x2="100%" y2="0%">
          <stop offset="0%" stop-color="#f9d423"></stop>
          <stop offset="100%" stop-color="#f83600"></stop>
        </linearGradient>
              <linearGradient id="94" x1="0%" y1="0%" x2="100%" y2="0%">
          <stop offset="0%" stop-color="#0064d2"></stop>
          <stop offset="100%" stop-color="#1cb0f6"></stop>
        </linearGradient>
              <linearGradient id="95" x1="0%" y1="0%" x2="100%" y2="0%">
          <stop offset="0%" stop-color="#f00978"></stop>
          <stop offset="100%" stop-color="#3f51b1"></stop>
        </linearGradient>
              <linearGradient id="96" x1="0%" y1="0%" x2="100%" y2="0%">
          <stop offset="0%" stop-color="#7873f5"></stop>
          <stop offset="100%" stop-color="#ec77ab"></stop>
        </linearGradient>
              <linearGradient id="97" x1="0%" y1="0%" x2="100%" y2="0%">
          <stop offset="0%" stop-color="#f9d423"></stop>
          <stop offset="100%" stop-color="#e14fad"></stop>
        </linearGradient>
              <linearGradient id="98" x1="0%" y1="0%" x2="100%" y2="0%">
          <stop offset="0%" stop-color="#009efd"></stop>
          <stop offset="100%" stop-color="#2af598"></stop>
        </linearGradient>
              <linearGradient id="99" x1="0%" y1="0%" x2="100%" y2="0%">
          <stop offset="0%" stop-color="#ffcc00"></stop>
          <stop offset="100%" stop-color="#00b140"></stop>
        </linearGradient>
              <linearGradient id="100" x1="0%" y1="0%" x2="100%" y2="0%">
          <stop offset="0%" stop-color="#d51007"></stop>
          <stop offset="100%" stop-color="#ff8177"></stop>
        </linearGradient>
              <linearGradient id="102" x1="0%" y1="0%" x2="100%" y2="0%">
          <stop offset="0%" stop-color="#a2b6df"></stop>
          <stop offset="100%" stop-color="#0c3483"></stop>
        </linearGradient>
              <linearGradient id="103" x1="0%" y1="0%" x2="100%" y2="0%">
          <stop offset="0%" stop-color="#7ac5d8"></stop>
          <stop offset="100%" stop-color="#eea2a2"></stop>
        </linearGradient>
              <linearGradient id="104" x1="0%" y1="0%" x2="100%" y2="0%">
          <stop offset="0%" stop-color="#00ecbc"></stop>
          <stop offset="100%" stop-color="#007adf"></stop>
        </linearGradient>
              <linearGradient id="105" x1="0%" y1="0%" x2="100%" y2="0%">
          <stop offset="0%" stop-color="#b88746"></stop>
          <stop offset="100%" stop-color="#fdf5a6"></stop>
        </linearGradient>
              <linearGradient id="107" x1="0%" y1="0%" x2="100%" y2="0%">
          <stop offset="0%" stop-color="#ffbf00"></stop>
          <stop offset="100%" stop-color="#26b5f8"></stop>
        </linearGradient>
          </defs>
  </svg>
    <rect
      x="0"
      y="0"
      width="100%"
      height="100%"
      fill="transparent"
      fill-opacity="1"
    ></rect>
    <svg data-v-0dd9719b="" version="1.0" xmlns="http://www.w3.org/2000/svg" xmlns:xlink="http://www.w3.org/1999/xlink" width="100%" height="100%" viewBox="0 0 100 100.00000762939453" preserveAspectRatio="xMidYMid meet" color-interpolation-filters="sRGB" style="margin: auto;"> <rect data-v-0dd9719b="" x="0" y="0" width="100%" height="100%" fill="#ffffff" fill-opacity="1" class="background" style="display: none;"/> <rect data-v-0dd9719b="" x="0" y="0" width="100%" height="100%" fill="url(#watermark)" fill-opacity="1" class="watermarklayer" style="display: none;"/> <g data-v-0dd9719b="" fill="#333" class="iconsvg-imagesvg"><rect fill="#333" fill-opacity="0" stroke-width="2" x="0" y="0" width="100" height="100" class="image-rect"/> <svg viewBox="0 0 60 60.09675577680065" x="0" y="0" width="100" height="100" class="image-svg-svg bn" style="overflow: visible;"><g hollow-target="iconBnFill" mask="url(#89498f85-bd6f-4309-a46e-ffd2dda5f5ea)"><g><svg xmlns:x="http://ns.adobe.com/Extensibility/1.0/" xmlns:i="http://ns.adobe.com/AdobeIllustrator/10.0/" xmlns:graph="http://ns.adobe.com/Graphs/1.0/" xmlns="http://www.w3.org/2000/svg" xmlns:xlink="http://www.w3.org/1999/xlink" version="1.1" x="0" y="0" viewBox="4.96937 4.89669 90.06126 90.20661" style="overflow: visible;" xml:space="preserve" width="60" height="60.09675577680065" filtersec="colorsb3180188611" filter="url(#-_98eafqv8a4HgSZHiXEX)"><g transform="scale(1, 1) skewX(0)"><g><g i:extraneous="self"><path class="st0" d="M95,44c-0.4-2.6-3-4.6-3.8-7c-0.8-2.5,0.2-5.6-1-7.9c-1.2-2.3-4.4-3.3-6-5.3c-1.6-2-1.8-5.3-3.7-7.1    c-1.9-1.7-5.2-1.6-7.4-3c-2.2-1.4-3.5-4.4-5.9-5.4c-2.4-1-5.5,0.3-8-0.3c-2.5-0.5-4.8-3-7.4-3.1c-2.5-0.1-5,2.1-7.6,2.5    c-2.6,0.3-5.6-1.1-8-0.4c-2.5,0.8-4.1,3.7-6.3,4.9c-2.3,1.2-5.6,0.8-7.6,2.4c-2,1.6-2.5,4.9-4.2,6.7c-1.7,1.9-5,2.7-6.4,4.8    C10.3,28,11,31.3,10,33.7c-1,2.4-3.8,4.2-4.3,6.7c-0.5,2.5,1.2,5.3,1.1,7.9C6.7,50.7,4.7,53.4,5,56c0.4,2.6,3,4.6,3.8,7    c0.8,2.5-0.2,5.6,1,7.9c1.2,2.3,4.4,3.3,6,5.3c1.6,2,1.8,5.3,3.7,7.1c1.9,1.7,5.2,1.6,7.4,3c2.2,1.4,3.5,4.4,5.9,5.4    c2.4,1,5.5-0.3,8,0.3c2.5,0.5,4.8,3,7.4,3.1c2.5,0.1,5-2.1,7.6-2.5c2.6-0.3,5.6,1.1,8,0.4c2.5-0.8,4.1-3.7,6.3-4.9    c2.3-1.2,5.6-0.8,7.6-2.4c2-1.6,2.5-4.9,4.2-6.7c1.7-1.9,5-2.7,6.4-4.8c1.4-2.2,0.7-5.4,1.7-7.8c1-2.4,3.8-4.2,4.3-6.7    c0.5-2.5-1.2-5.3-1.1-7.9C93.3,49.3,95.3,46.6,95,44z"/></g></g></g><defs><filter id="-_98eafqv8a4HgSZHiXEX"><feColorMatrix type="matrix" values="0 0 0 0 0.19921875  0 0 0 0 0.19921875  0 0 0 0 0.19921875  0 0 0 1 0"/></filter></defs></svg></g> <g filter="url(#colors3625430845)"><svg xmlns="http://www.w3.org/2000/svg" xmlns:xlink="http://www.w3.org/1999/xlink" viewBox="0 0 31.680000000000007 58.104000000000006" width="45" height="45.07257" x="7.5" y="7.512092888400325" class="image-svg-letter"><path transform="translate(-0.7200000000000001 58.104000000000006)" d="M32.40-56.88C29.38-57.74 26.50-58.10 23.83-58.10C13.39-58.10 5.76-52.06 5.83-40.39L5.83-39.17L0.72-39.17L0.72-26.42C2.52-26.57 4.25-26.71 5.90-26.78C5.90-18.00 5.90-8.50 5.83 0L22.90 0C22.68-6.19 22.39-17.50 22.32-27.00C25.20-26.93 28.30-26.71 31.82-26.42L31.82-39.17L22.32-39.17C19.44-39.17 18.14-40.68 18.79-42.62C19.66-45.14 25.06-44.86 29.09-41.54C30.10-46.87 30.89-51.55 32.40-56.88Z"/></svg></g></g><mask id="89498f85-bd6f-4309-a46e-ffd2dda5f5ea"><g fill="white"><svg xmlns:x="http://ns.adobe.com/Extensibility/1.0/" xmlns:i="http://ns.adobe.com/AdobeIllustrator/10.0/" xmlns:graph="http://ns.adobe.com/Graphs/1.0/" xmlns="http://www.w3.org/2000/svg" xmlns:xlink="http://www.w3.org/1999/xlink" version="1.1" x="0" y="0" viewBox="4.96937 4.89669 90.06126 90.20661" style="overflow: visible;" xml:space="preserve" width="60" height="60.09675577680065" filtersec="colorsb3180188611"><g transform="scale(1, 1) skewX(0)"><g><g i:extraneous="self"><path d="M95,44c-0.4-2.6-3-4.6-3.8-7c-0.8-2.5,0.2-5.6-1-7.9c-1.2-2.3-4.4-3.3-6-5.3c-1.6-2-1.8-5.3-3.7-7.1    c-1.9-1.7-5.2-1.6-7.4-3c-2.2-1.4-3.5-4.4-5.9-5.4c-2.4-1-5.5,0.3-8-0.3c-2.5-0.5-4.8-3-7.4-3.1c-2.5-0.1-5,2.1-7.6,2.5    c-2.6,0.3-5.6-1.1-8-0.4c-2.5,0.8-4.1,3.7-6.3,4.9c-2.3,1.2-5.6,0.8-7.6,2.4c-2,1.6-2.5,4.9-4.2,6.7c-1.7,1.9-5,2.7-6.4,4.8    C10.3,28,11,31.3,10,33.7c-1,2.4-3.8,4.2-4.3,6.7c-0.5,2.5,1.2,5.3,1.1,7.9C6.7,50.7,4.7,53.4,5,56c0.4,2.6,3,4.6,3.8,7    c0.8,2.5-0.2,5.6,1,7.9c1.2,2.3,4.4,3.3,6,5.3c1.6,2,1.8,5.3,3.7,7.1c1.9,1.7,5.2,1.6,7.4,3c2.2,1.4,3.5,4.4,5.9,5.4    c2.4,1,5.5-0.3,8,0.3c2.5,0.5,4.8,3,7.4,3.1c2.5,0.1,5-2.1,7.6-2.5c2.6-0.3,5.6,1.1,8,0.4c2.5-0.8,4.1-3.7,6.3-4.9    c2.3-1.2,5.6-0.8,7.6-2.4c2-1.6,2.5-4.9,4.2-6.7c1.7-1.9,5-2.7,6.4-4.8c1.4-2.2,0.7-5.4,1.7-7.8c1-2.4,3.8-4.2,4.3-6.7    c0.5-2.5-1.2-5.3-1.1-7.9C93.3,49.3,95.3,46.6,95,44z"/></g></g></g><defs/></svg></g> <g fill="black"><svg xmlns="http://www.w3.org/2000/svg" xmlns:xlink="http://www.w3.org/1999/xlink" viewBox="0 0 31.680000000000007 58.104000000000006" width="45" height="45.07257" x="7.5" y="7.512092888400325" class="image-svg-letter"><path transform="translate(-0.7200000000000001 58.104000000000006)" d="M32.40-56.88C29.38-57.74 26.50-58.10 23.83-58.10C13.39-58.10 5.76-52.06 5.83-40.39L5.83-39.17L0.72-39.17L0.72-26.42C2.52-26.57 4.25-26.71 5.90-26.78C5.90-18.00 5.90-8.50 5.83 0L22.90 0C22.68-6.19 22.39-17.50 22.32-27.00C25.20-26.93 28.30-26.71 31.82-26.42L31.82-39.17L22.32-39.17C19.44-39.17 18.14-40.68 18.79-42.62C19.66-45.14 25.06-44.86 29.09-41.54C30.10-46.87 30.89-51.55 32.40-56.88Z"/></svg></g></mask></svg> <defs><filter id="colors3625430845"><feColorMatrix type="matrix" values="0 0 0 0 0.19921875  0 0 0 0 0.19921875  0 0 0 0 0.19921875  0 0 0 1 0" class="icon-fecolormatrix"/></filter> <filter id="colorsf6154784320"><feColorMatrix type="matrix" values="0 0 0 0 0.99609375  0 0 0 0 0.99609375  0 0 0 0 0.99609375  0 0 0 1 0" class="icon-fecolormatrix"/></filter> <filter id="colorsb3180188611"><feColorMatrix type="matrix" values="0 0 0 0 0  0 0 0 0 0  0 0 0 0 0  0 0 0 1 0" class="icon-fecolormatrix"/></filter></defs></g><defs v-gra="od"/></svg>
  </svg>